<?xml version="1.0" standalone="no"?><!DOCTYPE svg PUBLIC "-//W3C//DTD SVG 1.1//EN" "http://www.w3.org/Graphics/SVG/1.1/DTD/svg11.dtd"><svg t="1625726174441" class="icon" viewBox="0 0 1024 1024" version="1.1" xmlns="http://www.w3.org/2000/svg" p-id="4281" xmlns:xlink="http://www.w3.org/1999/xlink" width="200" height="200"><defs><style type="text/css"></style></defs><path d="M441.07776 322.8672l141.84448 0 36.72064-73.4208c5.79584-11.63264-0.08192-21.15584-13.08672-21.15584l-189.11232 0c-13.0048 0-18.88256 9.50272-13.08672 21.15584L441.07776 322.8672z" p-id="4282"></path><path d="M473.98912 512.06144c0 12.20608 8.23296 22.38464 24.69888 30.55616l0-56.29952C482.22208 489.2672 473.98912 497.8688 473.98912 512.06144z" p-id="4283"></path><path d="M524.61568 602.66496l0 53.80096c16.93696-2.60096 25.3952-11.07968 25.3952-25.3952C550.01088 619.47904 541.55264 610.01728 524.61568 602.66496z" p-id="4284"></path><path d="M653.43488 370.15552 370.56512 370.15552c-57.58976 43.1104-94.98624 111.67744-94.98624 189.1328 0 130.58048 105.79968 236.42112 236.42112 236.42112s236.42112-105.82016 236.42112-236.42112C748.42112 481.81248 711.02464 413.26592 653.43488 370.15552zM578.4576 676.10624c-12.57472 12.02176-30.5152 19.33312-53.84192 21.93408l0 38.54336L498.688 736.58368l0-37.4784c-24.04352-0.12288-46.44864-5.57056-67.11296-16.34304l0-49.21344c6.84032 5.55008 17.1008 10.71104 30.72 15.44192 13.59872 4.73088 25.72288 7.45472 36.39296 8.17152l0-64.65536c-27.70944-10.30144-46.63296-21.46304-56.75008-33.4848-10.11712-12.00128-15.17568-26.66496-15.17568-43.95008 0-18.59584 6.57408-34.44736 19.72224-47.53408 13.14816-13.08672 30.53568-20.6848 52.224-22.8352l0-33.03424 25.94816 0 0 32.33792c25.00608 1.16736 43.6224 5.20192 55.93088 12.0832l0 47.96416c-16.56832-10.07616-35.2256-16.22016-55.93088-18.47296l0 67.31776c25.94816 9.37984 44.52352 20.04992 55.76704 32.07168 11.264 12.02176 16.87552 26.54208 16.87552 43.60192C597.25824 648.25344 590.97088 664.08448 578.4576 676.10624z" p-id="4285"></path></svg>